<svg width="53" height="29" viewBox="0 0 53 29" fill="none" xmlns="http://www.w3.org/2000/svg">
<path d="M9.9375 0.0391371C4.20246 0.448208 0 4.20876 0 8.4122V23.3529C0 26.4661 3.46046 28.9898 7.72917 28.9898H14.3542C18.6229 28.9898 22.0833 26.4661 22.0833 23.3529V8.05306C22.0833 3.34713 16.5205 -0.427912 9.9375 0.0391371ZM13.25 12.8846H8.83333C7.61433 12.8846 6.625 12.1631 6.625 11.2741C6.625 10.3851 7.61433 9.66357 8.83333 9.66357H13.25C14.469 9.66357 15.4583 10.3851 15.4583 11.2741C15.4583 12.1631 14.469 12.8846 13.25 12.8846ZM39.75 0.000484896H21.8492C24.7179 2.04745 26.5 4.90128 26.5 8.05306V23.3529C26.5 25.4917 25.4533 27.4565 23.7153 28.9898H45.2708C49.5395 28.9898 53 26.4661 53 23.3529V9.66357C53 4.32633 47.0684 0.000484896 39.75 0.000484896ZM41.9583 6.44254H39.75V11.2741C39.75 12.1631 38.7607 12.8846 37.5417 12.8846C36.3227 12.8846 35.3333 12.1631 35.3333 11.2741V4.83203C35.3333 3.94303 36.3227 3.22151 37.5417 3.22151H41.9583C43.1773 3.22151 44.1667 3.94303 44.1667 4.83203C44.1667 5.72103 43.1773 6.44254 41.9583 6.44254Z" fill="#737373"/>
</svg>
