<svg width="62" height="62" viewBox="0 0 62 62" fill="none" xmlns="http://www.w3.org/2000/svg">
<path d="M21.1875 22.0243C17.6166 22.2783 15 24.6133 15 27.2232V36.5001C15 38.433 17.1546 40 19.8125 40H23.9375C26.5954 40 28.75 38.433 28.75 36.5001V27.0002C28.75 24.0783 25.2864 21.7343 21.1875 22.0243ZM23.25 30.0002H20.5C19.741 30.0002 19.125 29.5522 19.125 29.0002C19.125 28.4482 19.741 28.0002 20.5 28.0002H23.25C24.009 28.0002 24.625 28.4482 24.625 29.0002C24.625 29.5522 24.009 30.0002 23.25 30.0002ZM39.75 22.0003H28.6042C30.3904 23.2713 31.5 25.0432 31.5 27.0002V36.5001C31.5 37.828 30.8483 39.048 29.7661 40H43.1875C45.8454 40 48 38.433 48 36.5001V28.0002C48 24.6863 44.3067 22.0003 39.75 22.0003ZM41.125 26.0002H39.75V29.0002C39.75 29.5522 39.134 30.0002 38.375 30.0002C37.616 30.0002 37 29.5522 37 29.0002V25.0003C37 24.4483 37.616 24.0003 38.375 24.0003H41.125C41.884 24.0003 42.5 24.4483 42.5 25.0003C42.5 25.5522 41.884 26.0002 41.125 26.0002Z" fill="#737373"/>
<circle cx="31" cy="31" r="29.5" stroke="#E90404" stroke-width="3"/>
</svg>
