<svg width="62" height="62" viewBox="0 0 62 62" fill="none" xmlns="http://www.w3.org/2000/svg">
<circle cx="31" cy="31" r="29.5" stroke="#E90404" stroke-width="3"/>
<path d="M45.173 35.9592L38.8291 33.7092C38.5581 33.6136 38.2569 33.5935 37.9709 33.6518C37.6848 33.7102 37.4295 33.8438 37.2431 34.0327L34.4337 36.8733C30.0246 35.1529 26.4763 32.2163 24.3974 28.5674L27.8299 26.2424C28.0585 26.0885 28.2204 25.8771 28.2909 25.6403C28.3614 25.4034 28.3368 25.154 28.2207 24.9298L25.5019 19.6797C25.3745 19.4381 25.1492 19.2407 24.8649 19.1218C24.5805 19.0028 24.2549 18.9697 23.9443 19.0282L18.0535 20.1532C17.754 20.2104 17.4867 20.35 17.2954 20.5491C17.1041 20.7483 16.9999 20.9952 17 21.2496C17 33.2733 28.7758 43 43.2817 43C43.5892 43.0002 43.8877 42.914 44.1285 42.7557C44.3692 42.5973 44.5379 42.3761 44.6071 42.1281L45.9665 37.253C46.0367 36.9947 45.9958 36.7241 45.851 36.488C45.7062 36.2519 45.4664 36.0649 45.173 35.9592Z" fill="#737373"/>
</svg>
