<svg width="47" height="31" viewBox="0 0 47 31" fill="none" xmlns="http://www.w3.org/2000/svg">
<path d="M46.1096 10.1143C46.4676 9.86706 47 10.0984 47 10.4892V26.8014C47 28.9152 45.0264 30.6302 42.5938 30.6302H4.40625C1.97363 30.6302 0 28.9152 0 26.8014V10.4972C0 10.0984 0.523242 9.87504 0.89043 10.1223C2.94668 11.5102 5.67305 13.2731 15.0363 19.1837C16.9732 20.4121 20.2412 22.9966 23.5 22.9806C26.7771 23.0045 30.1094 20.3643 31.9728 19.1837C41.3361 13.2731 44.0533 11.5023 46.1096 10.1143ZM23.5 20.4201C25.6297 20.452 28.6957 18.0909 30.2379 17.1178C42.4193 9.43633 43.3465 8.76629 46.1555 6.8519C46.6879 6.49296 47 5.9346 47 5.34433V3.82877C47 1.71497 45.0264 0 42.5938 0H4.40625C1.97363 0 0 1.71497 0 3.82877V5.34433C0 5.9346 0.312109 6.48498 0.844531 6.8519C3.65352 8.75831 4.58067 9.43633 16.7621 17.1178C18.3043 18.0909 21.3703 20.452 23.5 20.4201Z" fill="#737373"/>
</svg>
