<svg width="42" height="35" viewBox="0 0 42 35" fill="none" xmlns="http://www.w3.org/2000/svg">
<path d="M40.8022 24.2211L31.6146 21.0076C31.2221 20.8711 30.7859 20.8423 30.3716 20.9256C29.9574 21.0089 29.5875 21.1998 29.3177 21.4695L25.2488 25.5266C18.8632 23.0694 13.7242 18.8755 10.7135 13.6641L15.6846 10.3435C16.0158 10.1237 16.2502 9.82181 16.3523 9.48357C16.4544 9.14534 16.4188 8.78916 16.2507 8.46895L12.3131 0.970804C12.1286 0.625628 11.8023 0.343802 11.3905 0.173925C10.9787 0.0040471 10.5072 -0.0432351 10.0572 0.0402311L1.52581 1.64698C1.09199 1.72873 0.704944 1.92808 0.427829 2.21247C0.150715 2.49687 -9.9933e-05 2.84953 4.96807e-08 3.21288C4.96807e-08 20.385 17.0546 34.2766 38.0632 34.2766C38.5085 34.2769 38.9408 34.1538 39.2895 33.9277C39.6381 33.7015 39.8825 33.3855 39.9827 33.0314L41.9515 26.0688C42.0531 25.6998 41.994 25.3135 41.7842 24.9762C41.5744 24.639 41.2272 24.3719 40.8022 24.2211Z" fill="#737373"/>
</svg>
