<svg width="62" height="62" viewBox="0 0 62 62" fill="none" xmlns="http://www.w3.org/2000/svg">
<path d="M42.5643 27.9531C42.7395 27.832 43 27.9453 43 28.1367V36.125C43 37.1602 42.0342 38 40.8438 38H22.1563C20.9658 38 20 37.1602 20 36.125V28.1406C20 27.9453 20.2561 27.8359 20.4357 27.957C21.442 28.6367 22.7762 29.5 27.3582 32.3945C28.3061 32.9961 29.9053 34.2617 31.5 34.2539C33.1037 34.2656 34.7344 32.9727 35.6463 32.3945C40.2283 29.5 41.558 28.6328 42.5643 27.9531ZM31.5 33C32.5422 33.0156 34.0426 31.8594 34.7973 31.3828C40.7584 27.6211 41.2121 27.293 42.5867 26.3555C42.8473 26.1797 43 25.9063 43 25.6172V24.875C43 23.8398 42.0342 23 40.8438 23H22.1563C20.9658 23 20 23.8398 20 24.875V25.6172C20 25.9063 20.1527 26.1758 20.4133 26.3555C21.7879 27.2891 22.2416 27.6211 28.2027 31.3828C28.9574 31.8594 30.4578 33.0156 31.5 33Z" fill="#737373"/>
<circle cx="31" cy="31" r="29.5" stroke="#E90404" stroke-width="3"/>
</svg>
